<svg width="160" height="160" viewBox="0 0 120 120" fill="none" xmlns="http://www.w3.org/2000/svg" role="img" aria-label="Колокол"><defs>
<filter id="wc" x="-30%" y="-30%" width="160%" height="160%" color-interpolation-filters="sRGB">
<feTurbulence type="fractalNoise" baseFrequency="0.015 0.02" numOctaves="4" seed="9" result="n"></feTurbulence>
<feDisplacementMap in="SourceGraphic" in2="n" scale="5" xChannelSelector="R" yChannelSelector="G"></feDisplacementMap>
<feGaussianBlur stdDeviation="0.4"></feGaussianBlur></filter>
<filter id="grain" x="0" y="0" width="100%" height="100%">
<feTurbulence type="fractalNoise" baseFrequency="0.55" numOctaves="2" seed="4" result="g"></feTurbulence>
<feColorMatrix in="g" type="matrix" values="0 0 0 0 0 0 0 0 0 0 0 0 0 0 0 0 0 0 0.2 0"></feColorMatrix>
<feComposite operator="in" in2="SourceGraphic"></feComposite></filter></defs><g filter="url(#wc)">
<path d="M57 28 Q60 22 63 28" stroke="#B6841A" stroke-width="2.2" stroke-opacity="0.7" fill="none"></path>
<circle cx="60" cy="24" r="2.6" fill="#D6A41E" fill-opacity="0.75"></circle>
<path d="M38 84 C35 58 45 33 60 31 C75 33 85 58 82 84 Z" fill="#D6A41E" fill-opacity="0.6"></path>
<path d="M48 80 C46 58 52 41 60 39 C60 56 58 72 56 82 Z" fill="#B98A2E" fill-opacity="0.18"></path>
<path d="M32 84 Q60 95 88 84 Q60 90 32 84 Z" fill="#D6A41E" fill-opacity="0.5"></path>
<circle cx="60" cy="90" r="3.6" fill="#8E6A22" fill-opacity="0.7"></circle>
<path d="M52 43 C50 58 50 72 52 82" stroke="#FDFCF8" stroke-width="1.6" stroke-opacity="0.4" fill="none"></path>
<path d="M38 84 C35 58 45 33 60 31 C75 33 85 58 82 84" stroke="#B6841A" stroke-width="1.3" stroke-opacity="0.5" fill="none"></path></g><g filter="url(#grain)" opacity="0.55"><path d="M38 84 C35 58 45 33 60 31 C75 33 85 58 82 84 Z" fill="#fff"></path></g></svg>