<svg width="160" height="160" viewBox="0 0 120 120" fill="none" xmlns="http://www.w3.org/2000/svg" role="img" aria-label="Летопись"><defs>
<filter id="wc" x="-30%" y="-30%" width="160%" height="160%" color-interpolation-filters="sRGB">
<feTurbulence type="fractalNoise" baseFrequency="0.015 0.02" numOctaves="4" seed="9" result="n"></feTurbulence>
<feDisplacementMap in="SourceGraphic" in2="n" scale="5" xChannelSelector="R" yChannelSelector="G"></feDisplacementMap>
<feGaussianBlur stdDeviation="0.4"></feGaussianBlur></filter>
<filter id="grain" x="0" y="0" width="100%" height="100%">
<feTurbulence type="fractalNoise" baseFrequency="0.55" numOctaves="2" seed="4" result="g"></feTurbulence>
<feColorMatrix in="g" type="matrix" values="0 0 0 0 0 0 0 0 0 0 0 0 0 0 0 0 0 0 0.2 0"></feColorMatrix>
<feComposite operator="in" in2="SourceGraphic"></feComposite></filter></defs><g filter="url(#wc)">
<path d="M22 42 Q60 34 60 38 Q60 34 98 42 L98 86 Q60 80 60 84 Q60 80 22 86 Z" fill="#F4EFE3" fill-opacity="0.9"></path>
<path d="M60 38 V84" stroke="#5E3D1C" stroke-width="2" stroke-opacity="0.55"></path>
<path d="M30 52 H52 M30 60 H52 M30 68 H50 M68 52 H90 M68 60 H90 M68 68 H88" stroke="#8E6A22" stroke-width="1.6" stroke-opacity="0.4" stroke-linecap="round"></path>
<path d="M32 46 h6 v6 h-6 Z" fill="#D43A2C" fill-opacity="0.7"></path>
<path d="M22 42 Q60 34 60 38 Q60 34 98 42 L98 86 Q60 80 60 84 Q60 80 22 86 Z" fill="none" stroke="#5E3D1C" stroke-width="1.3" stroke-opacity="0.45"></path></g><g filter="url(#grain)" opacity="0.55"><path d="M22 42 Q60 34 60 38 Q60 34 98 42 L98 86 Q60 80 60 84 Q60 80 22 86 Z" fill="#fff"></path></g></svg>