<svg width="160" height="160" viewBox="0 0 120 120" fill="none" xmlns="http://www.w3.org/2000/svg" role="img" aria-label="Гусли"><defs>
<filter id="wc" x="-30%" y="-30%" width="160%" height="160%" color-interpolation-filters="sRGB">
<feTurbulence type="fractalNoise" baseFrequency="0.015 0.02" numOctaves="4" seed="9" result="n"></feTurbulence>
<feDisplacementMap in="SourceGraphic" in2="n" scale="5" xChannelSelector="R" yChannelSelector="G"></feDisplacementMap>
<feGaussianBlur stdDeviation="0.4"></feGaussianBlur></filter>
<filter id="grain" x="0" y="0" width="100%" height="100%">
<feTurbulence type="fractalNoise" baseFrequency="0.55" numOctaves="2" seed="4" result="g"></feTurbulence>
<feColorMatrix in="g" type="matrix" values="0 0 0 0 0 0 0 0 0 0 0 0 0 0 0 0 0 0 0.2 0"></feColorMatrix>
<feComposite operator="in" in2="SourceGraphic"></feComposite></filter></defs><g filter="url(#wc)">
<path d="M22 64 L96 40 Q102 52 92 78 L34 92 Q22 82 22 64 Z" fill="#8A5A2B" fill-opacity="0.6"></path>
<path d="M30 66 L88 50 M32 72 L88 58 M34 78 L86 66 M36 84 L84 74" stroke="#D6A41E" stroke-width="1.4" stroke-opacity="0.7"></path>
<ellipse cx="58" cy="70" rx="9" ry="7" fill="#161433" fill-opacity="0.5"></ellipse>
<path d="M22 64 L96 40 Q102 52 92 78 L34 92 Q22 82 22 64 Z" fill="none" stroke="#5E3D1C" stroke-width="1.3" stroke-opacity="0.5"></path></g><g filter="url(#grain)" opacity="0.55"><path d="M22 64 L96 40 Q102 52 92 78 L34 92 Q22 82 22 64 Z" fill="#fff"></path></g></svg>