<svg width="160" height="160" viewBox="0 0 120 120" fill="none" xmlns="http://www.w3.org/2000/svg" role="img" aria-label="Мимоза — 8 Марта"><defs>
<filter id="wc" x="-30%" y="-30%" width="160%" height="160%" color-interpolation-filters="sRGB">
<feTurbulence type="fractalNoise" baseFrequency="0.015 0.02" numOctaves="4" seed="17" result="n"></feTurbulence>
<feDisplacementMap in="SourceGraphic" in2="n" scale="5" xChannelSelector="R" yChannelSelector="G"></feDisplacementMap>
<feGaussianBlur stdDeviation="0.4"></feGaussianBlur></filter>
<filter id="grain" x="0" y="0" width="100%" height="100%">
<feTurbulence type="fractalNoise" baseFrequency="0.55" numOctaves="2" seed="4" result="g"></feTurbulence>
<feColorMatrix in="g" type="matrix" values="0 0 0 0 0 0 0 0 0 0 0 0 0 0 0 0 0 0 0.2 0"></feColorMatrix>
<feComposite operator="in" in2="SourceGraphic"></feComposite></filter></defs><g filter="url(#wc)">
<path d="M40 104 C52 84 60 66 82 36" stroke="#2E6B3A" stroke-width="2.8" stroke-opacity="0.72" fill="none"></path>
<path d="M58 70 C63 64 68 62 74 60" stroke="#4F8C56" stroke-width="2" stroke-opacity="0.6" fill="none"></path>
<path d="M50 84 C55 79 60 77 66 75" stroke="#4F8C56" stroke-width="2" stroke-opacity="0.6" fill="none"></path>
<path d="M66 56 C70 52 75 50 80 49" stroke="#4F8C56" stroke-width="2" stroke-opacity="0.6" fill="none"></path>
<g fill="#D6A41E" fill-opacity="0.82">
<circle cx="83" cy="34" r="3.1"></circle><circle cx="78" cy="38" r="3"></circle><circle cx="86" cy="40" r="2.8"></circle><circle cx="80" cy="44" r="3"></circle><circle cx="74" cy="42" r="2.8"></circle><circle cx="76" cy="49" r="3"></circle><circle cx="70" cy="52" r="2.9"></circle><circle cx="73" cy="58" r="2.8"></circle><circle cx="66" cy="60" r="3"></circle><circle cx="68" cy="66" r="2.8"></circle><circle cx="60" cy="64" r="3"></circle><circle cx="62" cy="70" r="2.8"></circle><circle cx="55" cy="74" r="2.9"></circle><circle cx="58" cy="80" r="2.7"></circle><circle cx="89" cy="45" r="2.7"></circle><circle cx="84" cy="49" r="2.8"></circle>
</g>
<g fill="#B6841A" fill-opacity="0.7">
<circle cx="80" cy="38" r="1.6"></circle><circle cx="72" cy="50" r="1.5"></circle><circle cx="64" cy="62" r="1.5"></circle><circle cx="56" cy="76" r="1.4"></circle></g></g><g filter="url(#grain)" opacity="0.45"><path d="M40 104 C52 84 60 66 82 36" stroke="#fff" stroke-width="3" fill="none"></path></g></svg>