<svg width="160" height="160" viewBox="0 0 120 120" fill="none" xmlns="http://www.w3.org/2000/svg" role="img" aria-label="Перо"><defs>
<filter id="wc" x="-30%" y="-30%" width="160%" height="160%" color-interpolation-filters="sRGB">
<feTurbulence type="fractalNoise" baseFrequency="0.015 0.02" numOctaves="4" seed="9" result="n"></feTurbulence>
<feDisplacementMap in="SourceGraphic" in2="n" scale="5" xChannelSelector="R" yChannelSelector="G"></feDisplacementMap>
<feGaussianBlur stdDeviation="0.4"></feGaussianBlur></filter>
<filter id="grain" x="0" y="0" width="100%" height="100%">
<feTurbulence type="fractalNoise" baseFrequency="0.55" numOctaves="2" seed="4" result="g"></feTurbulence>
<feColorMatrix in="g" type="matrix" values="0 0 0 0 0 0 0 0 0 0 0 0 0 0 0 0 0 0 0.2 0"></feColorMatrix>
<feComposite operator="in" in2="SourceGraphic"></feComposite></filter></defs><g filter="url(#wc)">
<path d="M46 86 H74 L70 102 H50 Z" fill="#2C2A63" fill-opacity="0.6"></path>
<ellipse cx="60" cy="86" rx="14" ry="4" fill="#161433" fill-opacity="0.6"></ellipse>
<path d="M56 90 C66 66 82 46 98 26 C94 44 84 66 72 88 Z" fill="#2B5FA8" fill-opacity="0.5"></path>
<path d="M58 88 C68 66 82 48 96 30" stroke="#1E4A87" stroke-width="1.4" stroke-opacity="0.55" fill="none"></path>
<path d="M64 76 l8 4 M70 64 l8 4 M76 52 l8 4" stroke="#1E4A87" stroke-width="1.2" stroke-opacity="0.4"></path>
<path d="M56 90 L52 98" stroke="#1F1B26" stroke-width="2" stroke-opacity="0.6" stroke-linecap="round"></path></g><g filter="url(#grain)" opacity="0.55"><path d="M56 90 C66 66 82 46 98 26 C94 44 84 66 72 88 Z" fill="#fff"></path></g></svg>