<svg width="24" height="24" viewBox="0 0 24 24" fill="none" stroke="currentColor" stroke-width="1.5" stroke-linecap="round" stroke-linejoin="round" xmlns="http://www.w3.org/2000/svg" aria-label="Действие">
  <path d="M4 16v-2.4C4 11.5 3 10.5 3 8c0-2.7 1.5-6 4.5-6C9.4 2 10 3.8 10 5.5c0 3.1-2 5.7-2 8.7V16a2 2 0 1 1-4 0Z"></path>
  <path d="M20 20v-2.4c0-2.1 1-3.1 1-5.6 0-2.7-1.5-6-4.5-6C14.6 6 14 7.8 14 9.5c0 3.1 2 5.7 2 8.7V20a2 2 0 1 0 4 0Z"></path>
  <path d="M16 17h4"></path>
  <path d="M4 13h4"></path>
</svg>